<svg width="36" height="40" viewBox="0 0 36 40" fill="none" xmlns="http://www.w3.org/2000/svg">
<path d="M32 4H30V0H26V4H10V0H6V4H4C1.8 4 0 5.8 0 8V36C0 37.0609 0.421427 38.0783 1.17157 38.8284C1.92172 39.5786 2.93913 40 4 40H32C34.22 40 36 38.22 36 36V8C36 6.93913 35.5786 5.92172 34.8284 5.17157C34.0783 4.42143 33.0609 4 32 4ZM32 36H4V16H32V36ZM4 12V8H32V12H4ZM10.46 30.82L12.58 32.94L17.46 28.06L22.34 32.94L24.46 30.82L19.58 25.94L24.46 21.06L22.34 18.94L17.46 23.82L12.58 18.94L10.46 21.06L15.34 25.94L10.46 30.82Z" fill="#5F6369"/>
</svg>
