<svg width="36" height="40" viewBox="0 0 36 40" fill="none" xmlns="http://www.w3.org/2000/svg">
<path d="M17.9 18C16.42 18 15.22 18.36 14.3 19C13.42 19.78 13 20.8 13 22.2V22.24H16.3C16.32 21.72 16.48 21.3 16.78 21C17.0983 20.7479 17.494 20.6137 17.9 20.62C18.42 20.62 18.86 20.8 19.18 21.12C19.48 21.46 19.62 21.92 19.62 22.44C19.62 23 19.5 23.5 19.22 23.9C19 24.32 18.62 24.66 18.18 25C17.32 25.56 16.72 26.1 16.4 26.58C16.06 27 15.88 27.78 15.88 28.66H19.28C19.28 28.12 19.34 27.68 19.5 27.36C19.66 27 19.94 26.72 20.36 26.42C21.14 26 21.76 25.48 22.26 24.78C22.74 24.06 23 23.34 23 22.44C23 21.1 22.54 20 21.62 19.22C20.72 18.4 19.48 18 17.9 18ZM15.88 30.44V34H19.28V30.44H15.88ZM32 4H30V0H26V4H10V0H6V4H4C2.93913 4 1.92172 4.42143 1.17157 5.17157C0.421427 5.92172 0 6.93913 0 8V36C0 37.0609 0.421427 38.0783 1.17157 38.8284C1.92172 39.5786 2.93913 40 4 40H32C34.22 40 36 38.22 36 36V8C36 6.93913 35.5786 5.92172 34.8284 5.17157C34.0783 4.42143 33.0609 4 32 4ZM32 8V12H4V8H32ZM4 36V16H32V36H4Z" fill="#5F6369"/>
</svg>
