<svg width="38" height="40" viewBox="0 0 38 40" fill="none" xmlns="http://www.w3.org/2000/svg">
<path d="M28 40V34H22V30H28V24H32V30H38V34H32V40H28ZM4 36C2.9 36 1.95833 35.6083 1.175 34.825C0.391667 34.0417 0 33.1 0 32V8C0 6.9 0.391667 5.95833 1.175 5.175C1.95833 4.39167 2.9 4 4 4H6V0H10V4H22V0H26V4H28C29.1 4 30.0417 4.39167 30.825 5.175C31.6083 5.95833 32 6.9 32 8V20.2C31.3333 20.1 30.6667 20.05 30 20.05C29.3333 20.05 28.6667 20.1 28 20.2V16H4V32H18C18 32.6667 18.05 33.3333 18.15 34C18.25 34.6667 18.4333 35.3333 18.7 36H4ZM4 12H28V8H4V12Z" fill="#5F6369"/>
</svg>
