<svg width="52" height="52" viewBox="0 0 52 52" fill="none" xmlns="http://www.w3.org/2000/svg">
<path d="M32.5 17.3333H32.5217M27.0833 45.5H13C11.2761 45.5 9.62279 44.8152 8.40381 43.5962C7.18482 42.3772 6.5 40.7239 6.5 39V13C6.5 11.2761 7.18482 9.62279 8.40381 8.40381C9.62279 7.18482 11.2761 6.5 13 6.5H39C40.7239 6.5 42.3772 7.18482 43.5962 8.40381C44.8152 9.62279 45.5 11.2761 45.5 13V27.0833" stroke="#5F6369" stroke-width="2" stroke-linecap="round" stroke-linejoin="round"/>
<path d="M6.5 34.6668L17.3333 23.8334C19.344 21.8986 21.8227 21.8986 23.8333 23.8334L32.5 32.5001" stroke="#5F6369" stroke-width="2" stroke-linecap="round" stroke-linejoin="round"/>
<path d="M30.3333 30.3332L32.4999 28.1666C33.9516 26.7712 35.6416 26.3812 37.2276 26.9966M34.6666 41.1666H47.6666M41.1666 34.6666V47.6666" stroke="#5F6369" stroke-width="2" stroke-linecap="round" stroke-linejoin="round"/>
</svg>
